<svg width="46" height="40" viewBox="0 0 46 40" fill="none" xmlns="http://www.w3.org/2000/svg">
<path d="M2.30098 23.435C1.76794 21.1251 1.56656 15.6407 5.02543 12.1818C6.60698 10.6003 8.30658 8.9667 9.83659 7.52347C12.6378 4.88112 15.7502 2.16045 19.598 2.00865C21.9372 1.91637 24.5522 2.5458 26.8211 4.71917C31.3223 9.03091 31.6975 13.8599 31.3223 15.7354C31.3026 16.6041 30.9433 18.7323 29.664 20.2959C28.8556 21.284 27.0428 23.1597 25.3795 24.8351C23.7371 26.4894 21.8033 28.4846 20.0438 26.9555V26.9555C18.4917 25.6067 20.5642 22.6639 22.005 21.1968C22.0737 21.1268 22.1399 21.0595 22.2038 20.9947C23.0805 20.1048 23.9289 18.9092 23.4363 17.7611C23.164 17.1264 22.5951 16.5878 21.5297 16.4539C20.8566 16.3694 20.2159 16.7006 19.7286 17.1726C18.038 18.8106 16.9799 19.9154 16.634 20.2959C14.7387 22.5071 12.3815 28.4338 18.1147 34.4512C22.0792 38.6124 26.4422 38.784 29.6054 37.8606C32.0135 37.1577 33.8607 35.3261 35.6125 33.5305L37.5687 31.5254C40.8097 28.2033 44.3326 24.3874 43.9744 19.76C43.917 19.0179 43.759 18.2947 43.4639 17.6307M38.3112 10.1681C40.3051 13.7809 42.3505 22.3926 34.5798 27.9362M32.6846 5.96293C35.6065 9.65477 39.2588 18.7797 30.4932 25.7448M11.2443 12.8333C8.2632 14.8865 3.35524 21.3383 7.57222 30.7199M15.6864 14.6693C12.1327 16.7818 6.67197 23.7666 13.258 34.8066" stroke="#2966F4" stroke-width="3" stroke-linecap="round"/>
</svg>
